<svg width="18" height="18" viewBox="0 0 18 18" fill="none" xmlns="http://www.w3.org/2000/svg">
<path d="M12.9015 0.5C14.3047 0.5 15.4438 0.989681 16.233 1.81402C17.0241 2.64026 17.5 3.841 17.5 5.3253V12.6756C17.5 14.1599 17.0241 15.3604 16.233 16.1864C15.4437 17.0105 14.3044 17.5 12.9006 17.5H5.0994C3.69562 17.5 2.55633 17.0105 1.767 16.1864C0.975872 15.3604 0.5 14.1599 0.5 12.6756V5.3253C0.5 3.841 0.975878 2.64027 1.76705 1.81405C2.5564 0.989709 3.69568 0.5 5.0994 0.5H12.9015ZM6.1569 6.1591C4.59016 6.1591 3.316 7.43326 3.316 9C3.316 10.5675 4.59003 11.8418 6.1569 11.8418C7.30774 11.8418 8.28626 11.1527 8.73159 10.175H9.7879V10.6668C9.7879 11.3155 10.3142 11.8418 10.9629 11.8418C11.6116 11.8418 12.1379 11.3155 12.1379 10.6668V10.175H12.3349V10.6668C12.3349 11.3155 12.8612 11.8418 13.5099 11.8418C14.1586 11.8418 14.6849 11.3155 14.6849 10.6668V9C14.6849 8.35126 14.1586 7.825 13.5099 7.825H8.73147C8.28608 6.84807 7.3076 6.1591 6.1569 6.1591ZM6.15699 8.50901C6.42744 8.50901 6.64879 8.73005 6.64879 9.00081C6.64879 9.27038 6.42774 9.49171 6.15699 9.49171C5.88624 9.49171 5.66519 9.27038 5.66519 9.00081C5.66519 8.73005 5.88654 8.50901 6.15699 8.50901Z" stroke="#D1D1D1"/>
</svg>
