<svg width="61" height="61" viewBox="0 0 61 61" fill="none" xmlns="http://www.w3.org/2000/svg">
<path d="M33.55 15.228H27.45V27.4105H15.25V33.5017H27.45V45.6841H33.55V33.5017H45.75V27.4105H33.55V15.228ZM30.5 0C13.664 0 0 13.6443 0 30.4561C0 47.2679 13.664 60.9122 30.5 60.9122C47.336 60.9122 61 47.2679 61 30.4561C61 13.6443 47.336 0 30.5 0ZM30.5 54.821C17.0495 54.821 6.1 43.8872 6.1 30.4561C6.1 17.025 17.0495 6.09122 30.5 6.09122C43.9505 6.09122 54.9 17.025 54.9 30.4561C54.9 43.8872 43.9505 54.821 30.5 54.821Z" fill="white"/>
</svg>
